<svg xmlns="http://www.w3.org/2000/svg" viewBox="0 0 589.17 62.03"><defs><style>.cls-1{fill:#6cb86a;}</style></defs><title>iRobot-TM-Education_elongated</title><g id="Layer_2" data-name="Layer 2"><g id="Layer_18" data-name="Layer 18"><path class="cls-1" d="M14.25,0a4.74,4.74,0,0,0-.67.07l-.37.06a6.58,6.58,0,0,0-2.44.76,8.08,8.08,0,0,0-3.17,3A8.44,8.44,0,0,0,6.43,7.79a5.61,5.61,0,0,0,.07,1c0,.16,0,.3,0,.44a6.87,6.87,0,0,0,.72,2.32,7.61,7.61,0,0,0,2.24,2.67,7.79,7.79,0,0,0,4.8,1.66l.72,0a8.28,8.28,0,0,0,3-.87l.62-.42a10.83,10.83,0,0,0,1.26-.93,7.34,7.34,0,0,0,2-3.37,7.42,7.42,0,0,0,.22-3.67A7.53,7.53,0,0,0,21,3.69a8.46,8.46,0,0,0-1.85-2A8.08,8.08,0,0,0,14.31,0Z"/><path class="cls-1" d="M244.2.94c-.1.34-.17.69-.24,1l0,.23c-.22,1.07-.43,2.14-.64,3.2l-.11.53-.14.7,0,.13c-.11.52-.21,1-.32,1.56s-.17.81-.26,1.22l-.19.93-.21,1-.13.62-.16.73-.18.87-.12.56-.21,1-.19.89c-.1.5-.21,1-.31,1.48l-.28,1.25L240.19,20l-.08.41-.09.41v.07c-.06.27-.11.53-.17.8l-.2.92-.19.85-.13.61,0,.23c-.11.48-.21,1-.31,1.44-.06.33-.11.67-.17,1s-.11.7-.17,1.05c-.23,1.15-.48,2.29-.73,3.44l0,.09-.39,1.8,0,.23c-.17.77-.34,1.53-.5,2.29s-.3,1.41-.43,2.11l-.19.94-.12.55-.07.32c-.16.76-.31,1.44-.41,2.14s-.1,1.26-.12,1.88v.08c0,.2,0,.4,0,.61s0,.34,0,.51l0,.14a8.53,8.53,0,0,0,.13,1.06c.16.86.34,1.77.6,2.68A15,15,0,0,0,238,52.22a15.4,15.4,0,0,0,2.24,2.84,12.28,12.28,0,0,0,1.07.95l.46.38a12.16,12.16,0,0,0,2.89,1.94l.84.39q.89.42,1.77.81.36.09.72.21a41.48,41.48,0,0,0,5.28,1.41c1.12.22,2.26.41,3.39.62.49,0,1,.09,1.51.12s1.15,0,1.73,0h.21l.92,0c.24,0,.37-.12.42-.39s.1-.52.16-.77l.08-.35.14-.67.12-.57c.08-.37.16-.75.25-1.13s.17-.8.26-1.2l.09-.4c.05-.27.11-.53.17-.8l.16-.77.2-.93.2-.92.45-2.12.08-.39.24-1.16,0-.2.14-.73,0-.15c.08-.42.16-.84.25-1.26,0-.18.05-.26,0-.3a.14.14,0,0,0-.13,0h-.16l-.25,0h-.08a8.93,8.93,0,0,1-1,.09h-.27c-.75,0-1.41,0-2-.07a13.64,13.64,0,0,1-2.13-.28,12.57,12.57,0,0,1-3.52-1.4,6.71,6.71,0,0,1-1.83-1.62A5,5,0,0,1,252,40.94a11.13,11.13,0,0,1,.42-3.78c.16-.65.31-1.3.45-2s.21-1,.31-1.54.2-1,.31-1.5c.07-.34.14-.69.22-1l0-.11c.12-.55.24-1.09.35-1.63v-.07c.11-.57.11-.57.75-.57H268.1a.57.57,0,0,0,.41-.3c.09-.36.15-.72.21-1.08l0-.1c0-.23.08-.46.13-.68.25-1.21.51-2.42.77-3.62l.18-.81.47-2.17.48-2.19.12-.57c.12-.54.23-1.08.36-1.61.05-.22.08-.34,0-.4s-.16-.07-.37-.07H257.49c-.15,0-.24,0-.28-.06s0-.13,0-.28c.13-.46.22-.93.32-1.4l0-.21c0-.13.06-.26.08-.39.16-.71.31-1.43.47-2.15l.24-1.11.24-1.1.6-2.74.14-.64c.12-.55.24-1.09.35-1.63l.18-1,0-.12c.09-.51.18-1,.3-1.5a.3.3,0,0,0,0-.21.16.16,0,0,0-.12,0H244.63a.41.41,0,0,0-.43.34Z"/><path class="cls-1" d="M129.7.92c-.09.35-.15.71-.22,1.06s-.09.49-.14.73c-.18.89-.38,1.77-.57,2.65l-.08.37-.09.37c-.09.41-.19.81-.27,1.22-.13.64-.26,1.27-.38,1.91l-.24,1.2c-.17.89-.36,1.77-.54,2.66l-.51,2.4-.25,1.11-.26,1.19L125.9,19c-.11.51-.21,1-.33,1.51,0,.24-.1.47-.15.71l0,.16-.18.77c-.17.78-.33,1.57-.49,2.35l-.07.37,0,.22-.09.43c-.15.61-.28,1.21-.4,1.81l-.06.27-.2.88c-.11.54-.23,1.07-.35,1.61s-.28,1.31-.4,2c0,.2-.08.4-.11.6l0,.28q-.09.57-.21,1.14c-.09.43-.19.86-.29,1.29l0,.07c-.09.41-.19.81-.27,1.22-.24,1.1-.44,2.09-.61,3.11l0,.14a18.14,18.14,0,0,0-.31,2.43,16.06,16.06,0,0,0,.19,3.93c0,.17.07.34.1.51l0,.15a16,16,0,0,0,.42,1.8c.15.49.34,1,.53,1.44s.28.7.41,1a9.18,9.18,0,0,0,1.28,2.32,16.89,16.89,0,0,0,1.24,1.53c.45.49.93,1,1.4,1.45l.08.08.33.33a2.88,2.88,0,0,0,.27.22l.16.12a21.7,21.7,0,0,0,2,1.34,22,22,0,0,0,3.82,1.84,25.42,25.42,0,0,0,6,1.37c1.06.11,2.15.16,3.18.2h.3c.3,0,.61,0,.91,0H144l.58,0H145c.4,0,.79,0,1.17-.06q1.56-.12,3.12-.27l.25,0a16.58,16.58,0,0,0,1.84-.25c1-.21,2.08-.47,3.09-.72l.29-.07.37-.09a23.54,23.54,0,0,0,4.34-1.56l.55-.25a18.13,18.13,0,0,0,2.16-1.08,28.35,28.35,0,0,0,3.07-2.19c1-.81,1.91-1.75,2.72-2.57l.06-.05a17.31,17.31,0,0,0,2.33-3.08l.15-.26a24.11,24.11,0,0,0,1.45-2.61,33.48,33.48,0,0,0,1.76-4.6,33.81,33.81,0,0,0,1-4.63A20.13,20.13,0,0,0,174.8,35a22,22,0,0,0-.15-2.9,18.49,18.49,0,0,0-.61-2.87,14.49,14.49,0,0,0-.95-2.52,17.21,17.21,0,0,0-2.1-3.32l-.11-.13a17,17,0,0,0-1.55-1.75A20.68,20.68,0,0,0,167,19.58a17,17,0,0,0-2.77-1.67,23.69,23.69,0,0,0-4.36-1.62c-1-.23-1.92-.44-2.84-.6a18,18,0,0,0-2.33-.27l-1.59,0c-.52,0-1,0-1.54,0-.79,0-1.59.12-2.36.19l-.69.07-.15,0c-.51.05-1,.1-1.46.19-1.12.22-2,.42-2.77.62a9.6,9.6,0,0,0-1.18.4l-.45.17a.76.76,0,0,0-.18.09l-.09,0s0-.06,0-.09a.57.57,0,0,1,0-.24c.13-.65.27-1.29.42-1.94l.05-.25.1-.42L143,13.1l.26-1.19.51-2.37.15-.71c.1-.45.2-.9.29-1.35l.1-.47.1-.48c.06-.32.12-.64.19-1,.16-.8.33-1.6.5-2.4l.06-.29c.14-.67.28-1.32.45-2,0-.14,0-.2,0-.24s-.11-.06-.22-.06H130.14a.4.4,0,0,0-.44.32Zm12.19,47a7.06,7.06,0,0,1-2.11-1.22A6.91,6.91,0,0,1,138,44.39a11.48,11.48,0,0,1-.55-2.35,12.32,12.32,0,0,1,.14-3.12,11.91,11.91,0,0,1,.69-2.66,11.79,11.79,0,0,1,1.88-3.32,9.57,9.57,0,0,1,2.18-2,12,12,0,0,1,2-1.06c.71-.28,1.47-.5,2.15-.7l.4-.11a5.57,5.57,0,0,1,1-.15l.83-.05.54,0a1.73,1.73,0,0,0,.32,0l.4,0a13.18,13.18,0,0,1,3.91.55,8.78,8.78,0,0,1,2.66,1.45,6.19,6.19,0,0,1,1.81,2.6,6.66,6.66,0,0,1,.39,1.67,9.18,9.18,0,0,1,.06,1.8,12.76,12.76,0,0,1-.28,2.08,12.42,12.42,0,0,1-1.34,3.48,11.67,11.67,0,0,1-1.35,1.91A14,14,0,0,1,154,46a12,12,0,0,1-2.62,1.52,13.41,13.41,0,0,1-3.11.91,14,14,0,0,1-1.93.13l-.62,0h-.4a9.84,9.84,0,0,1-3.45-.62Z"/><path class="cls-1" d="M37.26.6h-7c-.28,0-.42.14-.45.44a6,6,0,0,1-.15.92c-.06.3-.13.6-.2.9l-.05.21c-.07.3-.14.6-.2.9-.11.53-.21,1-.31,1.57s-.24,1.26-.37,1.89c-.17.81-.35,1.61-.53,2.43l-.23,1-.19.86,0,.06c-.21.92-.4,1.82-.58,2.71-.05.25-.08.38,0,.45s.18.06.42.06H41.22a3.48,3.48,0,0,1,2,.65A4.24,4.24,0,0,1,45.05,20a6.32,6.32,0,0,1-1.88,3.55,6.75,6.75,0,0,1-1,.8l-.17.12a5.78,5.78,0,0,1-3.3,1.1l-6.07,0H24.91c-.21,0-.3,0-.33.06s0,.15.1.33l.34.64c.21.41.43.82.65,1.23l1.12,2q.8,1.41,1.56,2.82c.31.57.61,1.15.91,1.72l.16.3c.19.36.37.72.57,1.07.31.58.62,1.16.94,1.73l.16.31,1.28,2.35c.28.52.56,1.06.83,1.59l.18.34c.21.4.41.8.62,1.19l.87,1.59.07.13.48.85.49.89.25.45,1.51,2.75c.19.36.38.72.56,1.09l.09.18c.17.33.33.65.51,1,.34.63.69,1.25,1,1.88l.25.45.18.33c.35.61.69,1.23,1,1.84C42,57.84,42.6,59,43.22,60.24a.72.72,0,0,0,.73.44H62.8c.26,0,.39,0,.42-.07s0-.16-.14-.39L62.38,59c-.51-.93-1-1.85-1.54-2.79-.4-.73-.79-1.47-1.18-2.2l-.19-.34-.72-1.35-.47-.88c-.41-.77-.83-1.54-1.25-2.31L55.8,46.82c-.46-.82-.9-1.62-1.34-2.43-.22-.4-.43-.8-.64-1.21l-.66-1.24-.06-.12c-.8-1.46-1.63-3-2.47-4.44-.16-.29-.08-.41.15-.55s.5-.3.74-.46c.59-.35,1.19-.72,1.77-1.11s1.36-1,1.91-1.46.9-.76,1.29-1.15c.2-.21.41-.41.62-.61.64-.64,1.37-1.35,2-2.11a21.16,21.16,0,0,0,1.53-2.16l.06-.09.37-.57a18.28,18.28,0,0,0,1.94-4A19.34,19.34,0,0,0,64,19c.12-.94.22-1.86.27-2.77a8.85,8.85,0,0,0-.11-1.45l0-.19,0-.15c-.09-.66-.18-1.34-.33-2a14.46,14.46,0,0,0-1.49-4.17A14,14,0,0,0,59,4.17a17.29,17.29,0,0,0-2.56-1.71A12.61,12.61,0,0,0,51.92,1L51.2.84A15,15,0,0,0,49.11.62c-2.64,0-5.27,0-7.9,0Z"/><path class="cls-1" d="M93.87,15.39l-.89,0a7.74,7.74,0,0,0-.83.07l-.26,0-2.14.31-.45.07c-.56.09-1.25.19-1.89.36-1.29.33-2.82.75-4.35,1.31a26.64,26.64,0,0,0-3,1.23,31.15,31.15,0,0,0-4.59,2.79,26.61,26.61,0,0,0-3.38,2.8c-.59.61-1.19,1.28-1.78,2-.71.86-1.28,1.6-1.79,2.31A24.08,24.08,0,0,0,66.12,33a33.57,33.57,0,0,0-1.28,3.41,29.78,29.78,0,0,0-.75,3.32c-.19,1-.32,2.13-.41,3.23a13.91,13.91,0,0,0,0,1.95V45c.07.94.15,1.72.28,2.5a13.06,13.06,0,0,0,.51,2.07A17.41,17.41,0,0,0,66.08,53a16.74,16.74,0,0,0,2.4,3.08,16,16,0,0,0,3.08,2.41,19.31,19.31,0,0,0,4.14,2c.6.2,1.24.37,1.81.51l1.21.32a17.41,17.41,0,0,0,2.91.51h.1l.65.08a20.06,20.06,0,0,0,2.28.14h.19l1.08,0h.14l.5,0,.74,0,2.29-.11h.08c.44,0,1-.06,1.5-.14,1-.15,2-.32,3.1-.54s2.29-.5,3.49-.85a31.82,31.82,0,0,0,5.21-2.1,18,18,0,0,0,1.85-1.09l.07,0q.45-.31.93-.6a20.91,20.91,0,0,0,3-2.41l.54-.49A12.9,12.9,0,0,0,111,51.71c.53-.71,1-1.45,1.52-2.15l.19-.27.68-1A16.93,16.93,0,0,0,115.1,45l.06-.14c.51-1.26.92-2.53,1.36-4,.15-.48.26-1,.37-1.48v-.09h0c.06-.27.11-.54.18-.8s.08-.47.12-.69.09-.58.14-.85a14.16,14.16,0,0,0,.25-2v-.19a17.79,17.79,0,0,0-.26-4.66c-.06-.26-.12-.51-.17-.77a14.6,14.6,0,0,0-.49-1.89,20.11,20.11,0,0,0-1.21-2.65A12,12,0,0,0,113,21.54c-.6-.56-1.27-1.14-2.05-1.78a13.24,13.24,0,0,0-3.35-2l-.14-.06A22.47,22.47,0,0,0,103,16.22L101.7,16c-.7-.15-1.43-.29-2.15-.4a22.14,22.14,0,0,0-2.73-.21h-.58c-.79,0-1.58,0-2.37,0ZM87.25,48.54a9.29,9.29,0,0,1-4-1.14,6.94,6.94,0,0,1-1.87-1.54,6.52,6.52,0,0,1-1-1.63,1.68,1.68,0,0,1-.09-.32l0-.14c0-.2-.09-.39-.13-.58a7.93,7.93,0,0,1-.2-1.07,10.16,10.16,0,0,1,0-1.91A21.41,21.41,0,0,1,80.27,38a11,11,0,0,1,1.08-3A13.45,13.45,0,0,1,83,32.64a10.92,10.92,0,0,1,4.2-2.87A14.31,14.31,0,0,1,89.79,29a15.19,15.19,0,0,1,2-.2H92q.56,0,1.11,0t.93,0a9.21,9.21,0,0,1,4.54,1.49A6.3,6.3,0,0,1,101.16,34a12.18,12.18,0,0,1,.19,1.21,7.92,7.92,0,0,1,.07,1.25,13.41,13.41,0,0,1-.37,2.55,11.51,11.51,0,0,1-1.26,3.28,12.22,12.22,0,0,1-1.41,2,18.82,18.82,0,0,1-2,1.87,9.7,9.7,0,0,1-3.11,1.65,10.7,10.7,0,0,1-3.21.68l-.74,0c-.44,0-.89,0-1.33,0-.25,0-.5,0-.75,0Z"/><path class="cls-1" d="M232.23,32.85l0-.36,0-.45a10.42,10.42,0,0,0-.12-1.4,12.68,12.68,0,0,0-.43-2.16,24.47,24.47,0,0,0-.9-2.41,14.3,14.3,0,0,0-3.2-4.69c-.4-.4-.85-.79-1.29-1.15l-.1-.07-.18-.16a14.64,14.64,0,0,0-3.11-2,24.14,24.14,0,0,0-2.93-1.17,23,23,0,0,0-5.08-1.16l-.85-.1a22.28,22.28,0,0,0-2.51-.23h-.57c-.93,0-1.88,0-2.79.1l-.79,0a16,16,0,0,0-1.93.2l-.11,0c-.87.13-1.85.26-2.78.46-.6.13-1.18.28-1.79.45l-.07,0-1,.26-1.4.48-.59.22c-.65.23-1.3.48-1.93.73a30.87,30.87,0,0,0-5.88,3.48l-.08.05,0,.05a29.65,29.65,0,0,0-2.43,2c-.58.53-1.11,1.1-1.69,1.74l-.45.52c-.28.3-.53.61-.78.93l-.22.25a12.49,12.49,0,0,0-1.53,2.29c-.21.39-.45.79-.66,1.17l0,.07a13.33,13.33,0,0,0-.85,1.58c-.6,1.29-1.1,2.64-1.5,3.79a16.21,16.21,0,0,0-.56,2.18c-.16.78-.25,1.58-.34,2.27,0,.2-.05.4-.08.6a14.86,14.86,0,0,0-.18,2.08c0,.92.1,1.87.18,2.78l0,.25c0,.23,0,.48.06.73a4.61,4.61,0,0,0,.15,1.08l.09.3a15.43,15.43,0,0,0,.64,2l.05.12a17.47,17.47,0,0,0,1.5,2.88,13.34,13.34,0,0,0,2.68,3.14l.55.45a9.72,9.72,0,0,0,1.09.83,35,35,0,0,0,3.28,1.85,21,21,0,0,0,3.84,1.31,33.78,33.78,0,0,0,4.53.8c.84.08,1.69.12,2.49.13h.2c.38,0,.77,0,1.13,0l.5,0,3.14-.14a6.32,6.32,0,0,0,.75-.06l.55-.09c.7-.1,1.4-.2,2.11-.33l.42-.07a20.92,20.92,0,0,0,2.09-.43c1.12-.32,2.6-.73,4-1.28a26.48,26.48,0,0,0,3.42-1.5,17.86,17.86,0,0,0,4-2.59l.55-.48c.8-.7,1.63-1.43,2.39-2.21a22.65,22.65,0,0,0,1.65-2l.3-.4a21.14,21.14,0,0,0,2.48-4.1,32.34,32.34,0,0,0,1.54-4A39.54,39.54,0,0,0,232,37.44a22.58,22.58,0,0,0,.26-2.71c0-.27,0-.55,0-.82S232.24,33.2,232.23,32.85ZM216,37.13a1.11,1.11,0,0,1,0,.23l0,.1-.08.51c-.12.6-.24,1.22-.4,1.8a11.87,11.87,0,0,1-1.78,3.74,10.66,10.66,0,0,1-2.75,2.73A11.37,11.37,0,0,1,207.4,48a11.59,11.59,0,0,1-2.05.45c-1,.1-1.89.15-2.68.15a5.82,5.82,0,0,1-.59,0A8.58,8.58,0,0,1,197.19,47a6.24,6.24,0,0,1-2.5-4,10.13,10.13,0,0,1-.18-2.7,12.47,12.47,0,0,1,.83-3.72,12,12,0,0,1,2.3-3.91,11.55,11.55,0,0,1,3.7-2.7A10,10,0,0,1,204.5,29c.67-.09,1.38-.17,2.1-.2.38,0,.78,0,1.18,0a7.31,7.31,0,0,1,.93,0,9.09,9.09,0,0,1,4.46,1.48,6.29,6.29,0,0,1,2.54,3.47A11.11,11.11,0,0,1,216,37.13Z"/><path class="cls-1" d="M24.12,25.53l-.47,0h-.14c-.43,0-.82.05-1.2.1-.93.16-1.85.35-2.69.54a16.73,16.73,0,0,0-4,1.42c-.4.2-.79.45-1.17.68l-.18.11q-.35.22-.69.42a17.72,17.72,0,0,0-3.3,2.63,17.18,17.18,0,0,0-2.72,3.32l-.36.59C6.75,36,6.36,36.65,6,37.3s-.6,1.27-.91,2L5,39.66,4.79,40a21.83,21.83,0,0,0-1.28,4c-.19.79-.34,1.59-.49,2.36-.12.6-.22,1.16-.34,1.71s-.27,1.21-.42,1.81l0,.23c-.12.5-.24,1-.34,1.5-.19.89-.37,1.79-.55,2.69S1,55.87.85,56.64C.56,58,.29,59.2,0,60.31c0,.16,0,.24,0,.29s.16.08.27.08H16.51c.26,0,.38,0,.41-.34a6.91,6.91,0,0,1,.19-1c0-.15.07-.29.1-.42.16-.79.33-1.56.5-2.34l.15-.7.21-1,.17-.76.21-1,.22-1L18.9,51,19.13,50l.23-1.12.26-1.23c.17-.8.34-1.6.52-2.4,0-.16.07-.31.1-.47l.07-.26.12-.57c.07-.36.14-.73.2-1.09l.21-1.09q.22-1.17.48-2.34c.06-.32.13-.64.2-1l.08-.37L21.84,37c.16-.74.31-1.47.46-2.21l.05-.23,0-.25.19-.89c.1-.5.2-1,.31-1.48s.27-1.23.41-1.84l.18-.8.2-.9.3-1.34.3-1.34c0-.08,0-.13,0-.16s-.05,0-.11,0Z"/><path class="cls-1" d="M263.26.6h3.55v.75h-1.38V5.64h-.8V1.35h-1.37Zm9.34,5h-.78l-.2-2.87c0-.5-.05-1-.05-1.26h-.07c-.07.25-.09.64-.27,1.26l-.9,2.87h-.78l-.82-2.71a11.79,11.79,0,0,1-.32-1.42h-.05c0,.25,0,.8-.06,1.33L268,5.64h-.75l.43-5h1.08l.87,2.93a8.64,8.64,0,0,1,.25,1h0c.07-.23.14-.57.28-1L271.16.6h1.08Z"/><path d="M322.19,20.26H302.68V34.67h18.77v5.09H302.68v16h20.25v5.1H297.12V15.17h25.07Z"/><path d="M363.28,60.88H358V56.59h-.13a15.26,15.26,0,0,1-12,5.43c-8.71,0-16.22-6.77-16.22-17.23,0-9.72,6.9-17.09,16.22-17.09a14.3,14.3,0,0,1,12,5.63H358V12.62h5.3Zm-16.49-3.55c6.23,0,11.66-5,11.66-12.34,0-7.64-5.09-12.67-11.53-12.67-7.84,0-11.79,6.24-11.79,12.47S339.08,57.33,346.79,57.33Z"/><path d="M399.48,60.88h-5.3v-4h-.13a11.67,11.67,0,0,1-9.72,5.1c-5.63,0-12.2-3.62-12.2-14.48V28.77h5.29V47.14c0,6.5,3.09,10,7.78,10,5.49,0,9-3.82,9-11.26V28.77h5.3Z"/><path d="M437.88,37H432c-1.28-2.68-4.09-4.7-8.58-4.7-6.1,0-11.4,4.16-11.4,12.47,0,7.24,5,12.54,11.73,12.54,5,0,7.44-2.62,8.71-5.3h5.9c-1.67,4.76-6,10-14.68,10-9.92,0-17.15-7.11-17.15-17.3,0-9.38,6.56-17,16.89-17C432.59,27.7,436.81,33.33,437.88,37Z"/><path d="M476.56,60.88h-5.29V56.59h-.14A15.08,15.08,0,0,1,459.4,62c-8.71,0-16.49-6.77-16.49-17.23,0-9.92,7.24-17.09,16.83-17.09,5.83,0,9.25,3.08,11.46,5.7h.07V28.77h5.29Zm-16.42-3.55c6,0,11.6-5.1,11.6-12.34,0-7.64-5.17-12.67-11.47-12.67-8,0-11.86,6.31-11.86,12.47S452.23,57.33,460.14,57.33Z"/><path d="M482.33,28.77h4.22V18.52h5.3V28.77h8.58V33.2h-8.58V50.15c0,5.23,1.61,6.64,5,6.64a14.56,14.56,0,0,0,3.89-.54v4.36a15.84,15.84,0,0,1-5,.67c-7.77,0-9.25-5.23-9.25-11.33V33.2h-4.22Z"/><path d="M506.66,14.83h6.57v6.23h-6.57Zm.6,13.94h5.3V60.88h-5.3Z"/><path d="M536.76,27.7c10,0,17.15,7.37,17.15,17.09a17.16,17.16,0,1,1-34.31,0A16.72,16.72,0,0,1,536.76,27.7Zm0,29.49c6.77,0,11.66-5.36,11.66-12.4,0-6.77-4.63-12.33-11.66-12.33-6.84,0-11.67,5.23-11.67,12.33S530.59,57.19,536.76,57.19Z"/><path d="M561,28.77h5.29v4h.13a12.34,12.34,0,0,1,10.13-5.09c5.83,0,12.66,3.62,12.66,14.48v18.7h-5.29V42.51c0-6.5-3.15-10-8.18-10-5.76,0-9.45,3.89-9.45,11.33V60.88H561Z"/></g></g></svg>